<svg xmlns="http://www.w3.org/2000/svg" xmlns:xlink="http://www.w3.org/1999/xlink" width="500" zoomAndPan="magnify" viewBox="0 0 375 374.999991" height="500" preserveAspectRatio="xMidYMid meet" version="1.0"><defs><g/><clipPath id="3a37ab4869"><path d="M 87 3.976562 L 277 3.976562 L 277 64 L 87 64 Z M 87 3.976562 " clip-rule="nonzero"/></clipPath><clipPath id="0448dc149c"><path d="M 78 262 L 286 262 L 286 287.476562 L 78 287.476562 Z M 78 262 " clip-rule="nonzero"/></clipPath><clipPath id="cbe73d7099"><path d="M 74.078125 34 L 290.078125 34 L 290.078125 135 L 74.078125 135 Z M 74.078125 34 " clip-rule="nonzero"/></clipPath><clipPath id="170cc7ffa1"><path d="M 209.089844 64.203125 L 234.660156 64.203125 L 234.660156 89.773438 L 209.089844 89.773438 Z M 209.089844 64.203125 " clip-rule="nonzero"/></clipPath><clipPath id="f4c98e9822"><path d="M 221.875 64.203125 C 214.816406 64.203125 209.089844 69.929688 209.089844 76.988281 C 209.089844 84.050781 214.816406 89.773438 221.875 89.773438 C 228.933594 89.773438 234.660156 84.050781 234.660156 76.988281 C 234.660156 69.929688 228.933594 64.203125 221.875 64.203125 Z M 221.875 64.203125 " clip-rule="nonzero"/></clipPath><clipPath id="8811197403"><path d="M 130.183594 64.203125 L 155.75 64.203125 L 155.75 89.773438 L 130.183594 89.773438 Z M 130.183594 64.203125 " clip-rule="nonzero"/></clipPath><clipPath id="b4590df64f"><path d="M 142.964844 64.203125 C 135.90625 64.203125 130.183594 69.929688 130.183594 76.988281 C 130.183594 84.050781 135.90625 89.773438 142.964844 89.773438 C 150.027344 89.773438 155.75 84.050781 155.75 76.988281 C 155.75 69.929688 150.027344 64.203125 142.964844 64.203125 Z M 142.964844 64.203125 " clip-rule="nonzero"/></clipPath><clipPath id="4f4b9521b4"><path d="M 223.375 64.203125 L 233.035156 64.203125 L 233.035156 73.863281 L 223.375 73.863281 Z M 223.375 64.203125 " clip-rule="nonzero"/></clipPath><clipPath id="35daa67296"><path d="M 228.203125 64.203125 C 225.539062 64.203125 223.375 66.367188 223.375 69.035156 C 223.375 71.703125 225.539062 73.863281 228.203125 73.863281 C 230.871094 73.863281 233.035156 71.703125 233.035156 69.035156 C 233.035156 66.367188 230.871094 64.203125 228.203125 64.203125 Z M 228.203125 64.203125 " clip-rule="nonzero"/></clipPath><clipPath id="71b51522d8"><path d="M 144.464844 64.203125 L 154.125 64.203125 L 154.125 73.863281 L 144.464844 73.863281 Z M 144.464844 64.203125 " clip-rule="nonzero"/></clipPath><clipPath id="5beb3b20bf"><path d="M 149.296875 64.203125 C 146.628906 64.203125 144.464844 66.367188 144.464844 69.035156 C 144.464844 71.703125 146.628906 73.863281 149.296875 73.863281 C 151.960938 73.863281 154.125 71.703125 154.125 69.035156 C 154.125 66.367188 151.960938 64.203125 149.296875 64.203125 Z M 149.296875 64.203125 " clip-rule="nonzero"/></clipPath></defs><g clip-path="url(#3a37ab4869)"><path fill="#c26c41" d="M 87.625 20.339844 C 103.015625 26.988281 116.835938 23.074219 130.546875 16.628906 C 146.6875 9.035156 163.5 4.113281 181.59375 3.992188 C 201.367188 3.863281 219.441406 9.90625 237.015625 18.136719 C 247.472656 23.03125 258.253906 25.421875 269.789062 22.714844 C 271.914062 22.21875 274.628906 19.765625 275.871094 21.207031 C 277.824219 23.464844 275.578125 26.429688 274.574219 28.929688 C 272.355469 34.449219 269.28125 39.453125 264.800781 43.480469 C 259.992188 47.804688 254.894531 49.078125 248.632812 46.183594 C 233.332031 39.101562 217.691406 37.082031 201.996094 44.988281 C 193.804688 49.117188 187.601562 55.648438 182.101562 63.121094 C 179.808594 60.367188 177.871094 57.691406 175.589844 55.347656 C 159.824219 39.140625 139.929688 35.652344 117.722656 45.09375 C 107.558594 49.414062 102.476562 48.296875 95.722656 39.578125 C 91.507812 34.140625 87.890625 28.273438 87.625 20.335938 Z M 87.625 20.339844 " fill-opacity="1" fill-rule="evenodd"/></g><path fill="#e8cfc1" d="M 117.667969 200.929688 C 106.011719 173.691406 102.222656 145.117188 103.378906 114.75 C 113.089844 122.777344 123.121094 128.792969 133.707031 133.839844 C 147.554688 140.445312 162.0625 144.816406 177.441406 146 C 178.261719 146.0625 179.054688 146.511719 179.859375 146.785156 L 184.410156 146.75 C 191.992188 145.285156 199.683594 144.460938 207.179688 142.433594 C 226.714844 137.148438 244.125 127.78125 260.863281 114.769531 C 260.863281 123.144531 261.375 130.851562 260.765625 138.46875 C 259.15625 158.558594 255.695312 178.335938 248.105469 197.132812 C 215.042969 279.039062 149.441406 275.164062 117.667969 200.929688 Z M 117.667969 200.929688 " fill-opacity="1" fill-rule="evenodd"/><g clip-path="url(#0448dc149c)"><path fill="#c26c41" d="M 208.460938 282.726562 C 208.457031 281.046875 207.253906 280.15625 206.484375 279.09375 C 201.652344 272.402344 202.023438 269.550781 208.105469 263.820312 C 210.210938 261.832031 210.808594 263.757812 211.625 264.816406 C 215.554688 269.898438 219.535156 274.949219 223.171875 280.234375 C 224.773438 282.5625 226.539062 283.207031 229.207031 283.191406 C 246.585938 283.089844 263.964844 283.101562 281.34375 283.203125 C 282.9375 283.210938 285.726562 281.886719 285.886719 284.925781 C 286.070312 288.484375 282.972656 287.148438 281.246094 287.152344 C 215.378906 287.21875 149.511719 287.210938 83.644531 287.207031 C 82.777344 287.207031 81.90625 287.195312 81.039062 287.175781 C 79.535156 287.140625 78.753906 286.261719 78.878906 284.863281 C 78.980469 283.71875 79.84375 283.140625 81.070312 283.152344 C 83.503906 283.171875 85.9375 283.140625 88.371094 283.140625 C 103.316406 283.140625 118.265625 282.960938 133.207031 283.253906 C 137.390625 283.339844 139.886719 281.917969 142.125 278.617188 C 145.335938 273.882812 148.988281 269.453125 152.382812 264.84375 C 153.792969 262.933594 154.695312 262.425781 156.601562 264.667969 C 162.765625 271.917969 162.878906 271.8125 157.171875 279.585938 C 156.488281 280.515625 155.875 281.503906 155.132812 282.609375 C 162.109375 284.128906 167.496094 283.414062 171.117188 276.632812 C 173.375 272.40625 176.945312 268.894531 179.777344 264.949219 C 181.390625 262.699219 182.441406 262.222656 184.246094 264.90625 C 187.050781 269.070312 190.757812 272.6875 193.183594 277.039062 C 196.832031 283.578125 202.144531 283.996094 208.460938 282.730469 Z M 208.460938 282.726562 " fill-opacity="1" fill-rule="evenodd"/></g><path fill="#c26c41" d="M 241.980469 235.425781 C 248 224.332031 253.757812 213.109375 258.464844 201.382812 C 266.734375 180.789062 272.601562 159.710938 271.4375 137.214844 C 271.339844 135.34375 271.179688 133.480469 270.996094 130.859375 C 278.867188 135.617188 282.753906 142.707031 284.890625 150.78125 C 287.550781 160.832031 286.007812 170.738281 282.496094 180.347656 C 274.925781 201.039062 261.273438 217.574219 246.207031 233.128906 C 245.125 234.246094 244 235.320312 242.890625 236.417969 C 242.113281 236.523438 241.59375 236.390625 241.980469 235.425781 Z M 241.980469 235.425781 " fill-opacity="1" fill-rule="evenodd"/><path fill="#c26c41" d="M 121.117188 236.652344 C 107.214844 222.496094 94.324219 207.542969 85.425781 189.617188 C 79.28125 177.238281 76.09375 164.246094 79.351562 150.40625 C 81.289062 142.179688 86.03125 135.511719 92.945312 131.015625 C 89.945312 169.761719 104.496094 203.105469 122.28125 235.511719 C 122.59375 236.601562 122.125 236.902344 121.117188 236.652344 Z M 121.117188 236.652344 " fill-opacity="1" fill-rule="evenodd"/><path fill="#e8cfc1" d="M 121.117188 236.652344 C 121.503906 236.269531 121.890625 235.886719 122.28125 235.507812 C 123.117188 236.6875 123.953125 237.867188 125.070312 239.441406 C 122.585938 239.28125 121.800781 238.027344 121.117188 236.652344 Z M 121.117188 236.652344 " fill-opacity="1" fill-rule="evenodd"/><path fill="#e8cfc1" d="M 241.980469 235.425781 C 242.285156 235.757812 242.585938 236.085938 242.890625 236.414062 C 242.511719 237.558594 241.796875 239.074219 240.628906 238.117188 C 239.726562 237.371094 240.972656 236.097656 241.980469 235.425781 Z M 241.980469 235.425781 " fill-opacity="1" fill-rule="evenodd"/><path fill="#e8cfc1" d="M 150.347656 80.761719 C 150.097656 82.527344 148.96875 83.148438 147.394531 82.933594 C 146.046875 82.746094 145.15625 81.8125 145.210938 80.449219 C 145.273438 78.84375 146.269531 77.90625 147.933594 78.003906 C 149.621094 78.105469 150.320312 79.183594 150.347656 80.765625 Z M 150.347656 80.761719 " fill-opacity="1" fill-rule="evenodd"/><g clip-path="url(#cbe73d7099)"><path fill="#e8cfc1" d="M 181.980469 78.839844 C 181.984375 78.894531 181.988281 78.949219 181.992188 79.003906 C 182.226562 79.003906 182.460938 78.984375 182.691406 78.941406 C 182.6875 81.789062 182.6875 84.632812 182.6875 87.480469 C 182.238281 87.496094 181.789062 87.507812 181.335938 87.523438 C 181.335938 84.664062 181.335938 81.800781 181.335938 78.941406 C 181.542969 78.980469 181.75 79 181.957031 79.003906 C 181.964844 78.949219 181.972656 78.894531 181.980469 78.839844 Z M 181.964844 78.117188 C 181.960938 78.347656 181.964844 78.582031 181.984375 78.808594 C 181.980469 78.820312 181.980469 78.828125 181.980469 78.839844 C 181.960938 78.59375 181.957031 78.351562 181.964844 78.117188 Z M 83.257812 77.101562 C 83.308594 77.082031 83.355469 77.0625 83.402344 77.039062 C 83.40625 77.039062 83.40625 77.039062 83.40625 77.039062 L 83.542969 77.230469 C 85.992188 77.636719 88.847656 77.589844 88.734375 81.289062 C 88.683594 82.96875 87.070312 83.566406 85.882812 83.355469 C 82.035156 82.667969 83.34375 79.707031 83.402344 77.316406 L 83.246094 77.179688 C 83.25 77.152344 83.253906 77.128906 83.257812 77.101562 Z M 83.703125 95.980469 C 87.148438 108.894531 94.890625 118.699219 105.519531 126.453125 C 111.695312 129.132812 117.867188 131.816406 124.042969 134.496094 C 124.042969 134.496094 124.042969 134.5 124.042969 134.5 C 127.074219 134.292969 130.101562 134.023438 133.132812 133.894531 C 152.21875 133.085938 166.507812 124.363281 176.347656 108.035156 C 178.109375 105.113281 177.855469 99.660156 182.824219 100.21875 C 187.644531 100.761719 187.695312 105.976562 189.289062 109.511719 C 192.699219 113.640625 196.105469 117.765625 199.515625 121.894531 C 211.46875 131.332031 225.394531 134.378906 240.234375 134.472656 C 246.835938 131.777344 253.433594 129.078125 260.03125 126.382812 C 270.269531 118.207031 279.324219 108.933594 281.089844 95.359375 C 281.894531 89.179688 291.324219 91.933594 290.082031 84.472656 C 289.085938 78.527344 282.597656 77.652344 280.914062 71.804688 C 273.953125 47.609375 256.382812 34.238281 233.242188 34.09375 C 209.875 33.949219 192.417969 47.140625 184.554688 70.878906 C 183.835938 73.332031 182.070312 75.476562 181.964844 78.117188 C 181.988281 76.363281 182.429688 74.546875 181.195312 72.957031 C 173.429688 46.300781 153.875 32.269531 127.253906 34.253906 C 104.574219 35.945312 86.472656 53.582031 83.257812 77.101562 C 79.371094 78.765625 74.621094 79.554688 74.125 85.007812 C 73.625 90.511719 77.09375 91.644531 81.710938 91.855469 C 82.449219 91.886719 83.300781 94.46875 83.703125 95.980469 Z M 217.71875 119.714844 C 215.074219 119.277344 212.785156 118.234375 211.199219 115.960938 C 185.761719 99.8125 188.121094 63.324219 215.539062 48.894531 C 233.660156 41.171875 251.875 45.035156 263.09375 58.976562 C 274.578125 73.253906 275.148438 92.601562 264.503906 106.800781 C 253.199219 121.878906 235.761719 126.691406 217.71875 119.714844 Z M 171.585938 84.398438 C 171.277344 100.335938 163.425781 112.679688 148.382812 119.589844 C 129.203125 126.660156 111.203125 121.785156 100.492188 106.625 C 90.078125 91.890625 90.921875 72.292969 102.550781 58.679688 C 114.769531 44.382812 132.261719 40.917969 150.234375 49.242188 C 164.683594 56.511719 171.886719 68.867188 171.585938 84.398438 Z M 275.1875 79.554688 C 275.328125 77.882812 276.667969 77.488281 278.011719 77.15625 C 279.386719 77.433594 280.628906 77.867188 280.742188 79.574219 C 280.871094 81.566406 279.902344 83.070312 277.988281 83.023438 C 276.183594 82.980469 275.011719 81.566406 275.1875 79.554688 Z M 275.1875 79.554688 " fill-opacity="1" fill-rule="evenodd"/></g><path fill="#e8cfc1" d="M 208.480469 77.296875 C 208.347656 85.257812 213.410156 90.648438 221.078125 90.71875 C 228.636719 90.789062 234.566406 85.253906 234.695312 78.007812 C 234.710938 77.105469 234.625 76.214844 234.449219 75.351562 C 233.550781 76.089844 232.375 76.472656 230.828125 76.371094 C 227.597656 76.164062 225.730469 74.355469 225.976562 71.101562 C 226.136719 69 227.03125 67.511719 228.589844 66.816406 C 226.53125 65.449219 224.101562 64.617188 221.535156 64.574219 C 214.515625 64.445312 208.59375 70.21875 208.480469 77.296875 Z M 208.480469 77.296875 " fill-opacity="1" fill-rule="evenodd"/><path fill="#e8cfc1" d="M 129.9375 77.296875 C 129.808594 85.257812 134.871094 90.648438 142.539062 90.71875 C 150.097656 90.789062 156.027344 85.253906 156.15625 78.007812 C 156.171875 77.105469 156.082031 76.214844 155.90625 75.351562 C 155.011719 76.089844 153.832031 76.472656 152.285156 76.371094 C 149.058594 76.164062 147.191406 74.355469 147.4375 71.101562 C 147.597656 69 148.488281 67.511719 150.050781 66.816406 C 147.992188 65.449219 145.5625 64.617188 142.992188 64.574219 C 135.976562 64.445312 130.054688 70.21875 129.9375 77.296875 Z M 129.9375 77.296875 " fill-opacity="1" fill-rule="evenodd"/><path fill="#c26c41" d="M 142.371094 97.261719 C 131.707031 97.132812 122.769531 88.027344 123.007812 77.53125 C 123.261719 66.4375 131.953125 58.222656 143.316406 58.324219 C 153.558594 58.421875 162.359375 67.300781 162.527344 77.710938 C 162.695312 88.144531 153.164062 97.390625 142.371094 97.261719 Z M 169.003906 84.5 C 169.246094 66.679688 154.699219 51.835938 136.925781 51.765625 C 118.078125 51.695312 103.464844 65.476562 103.398438 83.386719 C 103.34375 98.109375 111.386719 109.847656 123.628906 114.597656 C 127.421875 116.066406 131.613281 116.867188 136.097656 116.878906 C 140.523438 116.890625 144.714844 116.082031 148.527344 114.597656 C 160.546875 109.910156 168.8125 98.457031 169.003906 84.5 Z M 169.003906 84.5 " fill-opacity="1" fill-rule="evenodd"/><path fill="#c26c41" d="M 195.078125 84.328125 C 195.0625 98.320312 203.351562 109.878906 215.515625 114.597656 C 219.289062 116.058594 223.433594 116.863281 227.824219 116.878906 C 232.214844 116.894531 236.394531 116.082031 240.214844 114.597656 C 242.421875 113.738281 244.511719 112.652344 246.449219 111.367188 C 255.171875 105.59375 260.867188 95.8125 260.886719 84.613281 C 260.90625 73 255.234375 62.976562 246.449219 57.152344 C 241.320312 53.75 235.128906 51.78125 228.390625 51.765625 C 209.558594 51.71875 195.105469 65.847656 195.078125 84.328125 Z M 221.382812 97.261719 C 210.792969 97.261719 201.585938 88.28125 201.535156 77.898438 C 201.484375 67.390625 210.492188 58.363281 221.0625 58.324219 C 232.214844 58.285156 241.164062 67.035156 241.046875 77.871094 C 240.933594 88.65625 232.203125 97.265625 221.382812 97.261719 Z M 221.382812 97.261719 " fill-opacity="1" fill-rule="evenodd"/><path fill="#c26c41" d="M 181.902344 126.773438 C 192.101562 126.09375 195.484375 103.539062 183.40625 96.75 C 182.828125 96.425781 182.335938 96.292969 181.902344 96.332031 C 181.472656 96.292969 180.980469 96.425781 180.402344 96.75 C 168.324219 103.539062 171.707031 126.09375 181.902344 126.773438 Z M 181.902344 126.773438 " fill-opacity="1" fill-rule="evenodd"/><g clip-path="url(#170cc7ffa1)"><g clip-path="url(#f4c98e9822)"><path fill="#e8cfc1" d="M 209.089844 64.203125 L 234.660156 64.203125 L 234.660156 89.773438 L 209.089844 89.773438 Z M 209.089844 64.203125 " fill-opacity="1" fill-rule="nonzero"/></g></g><g clip-path="url(#8811197403)"><g clip-path="url(#b4590df64f)"><path fill="#e8cfc1" d="M 130.183594 64.203125 L 155.75 64.203125 L 155.75 89.773438 L 130.183594 89.773438 Z M 130.183594 64.203125 " fill-opacity="1" fill-rule="nonzero"/></g></g><g clip-path="url(#4f4b9521b4)"><g clip-path="url(#35daa67296)"><path fill="#2b2012" d="M 223.375 64.203125 L 233.035156 64.203125 L 233.035156 73.863281 L 223.375 73.863281 Z M 223.375 64.203125 " fill-opacity="1" fill-rule="nonzero"/></g></g><g fill="#e8cfc1" fill-opacity="1"><g transform="translate(62.450351, 362.825145)"><g><path d="M 38.363281 1.171875 C 57.546875 1.171875 73.035156 -14.410156 73.035156 -33.589844 C 73.035156 -52.773438 57.546875 -68.261719 38.273438 -68.261719 C 19.09375 -68.261719 3.601562 -52.773438 3.601562 -33.589844 C 3.601562 -14.410156 19.09375 1.171875 38.363281 1.171875 Z M 38.273438 -54.933594 C 49.621094 -54.933594 58.714844 -45.386719 58.714844 -33.589844 C 58.714844 -21.613281 49.710938 -12.246094 38.363281 -12.246094 C 26.835938 -12.246094 17.921875 -21.613281 17.921875 -33.589844 C 17.921875 -45.386719 26.835938 -54.933594 38.273438 -54.933594 Z M 38.273438 -54.933594 "/></g></g></g><g fill="#e8cfc1" fill-opacity="1"><g transform="translate(136.827309, 362.825145)"><g><path d="M 45.207031 -23.683594 L 34.761719 -45.476562 L 22.515625 -45.476562 L 28.636719 -32.421875 L 24.496094 -23.59375 L 13.597656 -45.476562 L -0.539062 -45.476562 L 24.136719 1.171875 L 34.402344 -20.261719 L 44.667969 1.171875 L 67.273438 -45.476562 L 54.753906 -45.476562 Z M 45.207031 -23.683594 "/></g></g></g><g fill="#e8cfc1" fill-opacity="1"><g transform="translate(201.299312, 362.825145)"><g><path d="M 4.503906 -67.09375 L 4.503906 0 L 17.289062 0 L 17.289062 -67.09375 Z M 4.503906 -67.09375 "/></g></g></g><g fill="#e8cfc1" fill-opacity="1"><g transform="translate(220.838767, 362.825145)"><g><path d="M 37.101562 -16.300781 C 35.03125 -13.058594 31.160156 -11.707031 27.285156 -11.707031 C 25.9375 -11.707031 24.675781 -11.796875 23.503906 -12.246094 L 48.902344 -30.4375 C 46.109375 -38.90625 37.464844 -46.46875 26.207031 -46.46875 C 13.148438 -46.46875 2.613281 -35.84375 2.613281 -22.695312 C 2.613281 -9.726562 13.597656 0.992188 27.285156 0.992188 C 35.390625 0.992188 43.40625 -2.703125 47.28125 -8.464844 Z M 15.578125 -22.695312 C 15.578125 -29.089844 20.351562 -33.679688 26.207031 -33.679688 C 28.636719 -33.679688 30.710938 -32.871094 32.511719 -31.519531 L 15.941406 -19.722656 C 15.667969 -20.621094 15.578125 -21.613281 15.578125 -22.695312 Z M 15.578125 -22.695312 "/></g></g></g><g fill="#e8cfc1" fill-opacity="1"><g transform="translate(270.093142, 362.825145)"><g><path d="M 30.527344 -46.289062 C 29.359375 -46.46875 28.457031 -46.46875 27.378906 -46.46875 C 23.863281 -46.46875 20.082031 -45.296875 17.289062 -42.328125 L 17.289062 -45.476562 L 4.503906 -45.476562 L 4.503906 0 L 17.289062 0 L 17.289062 -22.695312 C 17.289062 -29.988281 21.523438 -33.679688 26.476562 -33.679688 C 27.917969 -33.679688 29.269531 -33.5 30.527344 -33.050781 Z M 30.527344 -46.289062 "/></g></g></g><g clip-path="url(#71b51522d8)"><g clip-path="url(#5beb3b20bf)"><path fill="#2b2012" d="M 144.464844 64.203125 L 154.125 64.203125 L 154.125 73.863281 L 144.464844 73.863281 Z M 144.464844 64.203125 " fill-opacity="1" fill-rule="nonzero"/></g></g></svg>