<svg xmlns="http://www.w3.org/2000/svg" xmlns:xlink="http://www.w3.org/1999/xlink" width="500" zoomAndPan="magnify" viewBox="0 0 375 374.999991" height="500" preserveAspectRatio="xMidYMid meet" version="1.0"><defs><clipPath id="035daae306"><path d="M 68 9.007812 L 307 9.007812 L 307 84 L 68 84 Z M 68 9.007812 " clip-rule="nonzero"/></clipPath><clipPath id="771346ff6a"><path d="M 51.398438 46 L 323.648438 46 L 323.648438 174 L 51.398438 174 Z M 51.398438 46 " clip-rule="nonzero"/></clipPath></defs><g clip-path="url(#035daae306)"><path fill="#c26c41" d="M 68.460938 29.609375 C 87.84375 37.984375 105.253906 33.054688 122.519531 24.9375 C 142.851562 15.375 164.03125 9.171875 186.820312 9.019531 C 211.722656 8.859375 234.488281 16.472656 256.625 26.835938 C 269.792969 33.003906 283.371094 36.011719 297.902344 32.605469 C 300.574219 31.976562 303.996094 28.886719 305.5625 30.703125 C 308.023438 33.546875 305.191406 37.28125 303.929688 40.429688 C 301.136719 47.382812 297.261719 53.683594 291.621094 58.753906 C 285.5625 64.203125 279.140625 65.808594 271.253906 62.160156 C 251.980469 53.242188 232.285156 50.695312 212.515625 60.65625 C 202.195312 65.859375 194.382812 74.082031 187.457031 83.496094 C 184.570312 80.023438 182.128906 76.65625 179.257812 73.707031 C 159.398438 53.292969 134.339844 48.898438 106.371094 60.789062 C 93.570312 66.230469 87.167969 64.824219 78.660156 53.84375 C 73.355469 46.992188 68.796875 39.605469 68.460938 29.609375 Z M 68.460938 29.609375 " fill-opacity="1" fill-rule="evenodd"/></g><path fill="#e8cfc1" d="M 106.300781 257.066406 C 91.621094 222.757812 86.847656 186.773438 88.300781 148.519531 C 100.535156 158.632812 113.167969 166.210938 126.503906 172.566406 C 143.945312 180.886719 162.21875 186.390625 181.589844 187.882812 C 182.621094 187.960938 183.617188 188.527344 184.632812 188.867188 L 190.363281 188.824219 C 199.917969 186.980469 209.601562 185.945312 219.042969 183.390625 C 243.644531 176.730469 265.578125 164.933594 286.65625 148.550781 C 286.65625 159.097656 287.300781 168.804688 286.535156 178.398438 C 284.507812 203.699219 280.148438 228.613281 270.589844 252.285156 C 228.945312 355.445312 146.320312 350.566406 106.300781 257.066406 Z M 106.300781 257.066406 " fill-opacity="1" fill-rule="evenodd"/><path fill="#c26c41" d="M 220.65625 360.09375 C 220.652344 357.976562 219.136719 356.855469 218.167969 355.515625 C 212.082031 347.085938 212.546875 343.496094 220.210938 336.277344 C 222.863281 333.773438 223.613281 336.199219 224.644531 337.535156 C 229.589844 343.933594 234.605469 350.292969 239.1875 356.953125 C 241.203125 359.886719 243.425781 360.699219 246.789062 360.679688 C 268.675781 360.550781 290.566406 360.5625 312.457031 360.691406 C 314.460938 360.699219 317.976562 359.035156 318.175781 362.863281 C 318.410156 367.339844 314.503906 365.664062 312.332031 365.667969 C 229.371094 365.75 146.410156 365.742188 63.449219 365.738281 C 62.355469 365.738281 61.261719 365.722656 60.167969 365.695312 C 58.273438 365.652344 57.285156 364.542969 57.445312 362.785156 C 57.574219 361.339844 58.664062 360.613281 60.207031 360.628906 C 63.269531 360.65625 66.335938 360.613281 69.398438 360.613281 C 88.226562 360.613281 107.054688 360.386719 125.871094 360.757812 C 131.140625 360.863281 134.289062 359.070312 137.105469 354.914062 C 141.148438 348.953125 145.75 343.375 150.027344 337.566406 C 151.804688 335.160156 152.9375 334.523438 155.335938 337.347656 C 163.101562 346.476562 163.242188 346.34375 156.058594 356.132812 C 155.195312 357.308594 154.425781 358.550781 153.488281 359.941406 C 162.273438 361.859375 169.0625 360.957031 173.625 352.417969 C 176.46875 347.09375 180.964844 342.671875 184.527344 337.703125 C 186.558594 334.867188 187.882812 334.265625 190.160156 337.648438 C 193.691406 342.894531 198.363281 347.445312 201.414062 352.925781 C 206.011719 361.164062 212.703125 361.6875 220.660156 360.09375 Z M 220.65625 360.09375 " fill-opacity="1" fill-rule="evenodd"/><path fill="#c26c41" d="M 262.875 300.511719 C 270.457031 286.542969 277.707031 272.40625 283.640625 257.636719 C 294.054688 231.703125 301.441406 205.152344 299.976562 176.816406 C 299.855469 174.460938 299.652344 172.113281 299.417969 168.8125 C 309.335938 174.804688 314.226562 183.734375 316.921875 193.90625 C 320.269531 206.5625 318.328125 219.039062 313.90625 231.140625 C 304.371094 257.203125 287.171875 278.03125 268.199219 297.621094 C 266.835938 299.027344 265.417969 300.382812 264.023438 301.761719 C 263.042969 301.894531 262.390625 301.730469 262.875 300.515625 Z M 262.875 300.511719 " fill-opacity="1" fill-rule="evenodd"/><path fill="#c26c41" d="M 110.648438 302.058594 C 93.132812 284.230469 76.902344 265.398438 65.695312 242.820312 C 57.949219 227.226562 53.9375 210.863281 58.039062 193.429688 C 60.480469 183.070312 66.457031 174.671875 75.164062 169.007812 C 71.382812 217.8125 89.714844 259.804688 112.113281 300.621094 C 112.507812 301.996094 111.917969 302.375 110.648438 302.058594 Z M 110.648438 302.058594 " fill-opacity="1" fill-rule="evenodd"/><path fill="#e8cfc1" d="M 110.648438 302.058594 C 111.136719 301.582031 111.621094 301.097656 112.109375 300.621094 C 113.164062 302.105469 114.21875 303.59375 115.625 305.574219 C 112.492188 305.371094 111.507812 303.792969 110.648438 302.058594 Z M 110.648438 302.058594 " fill-opacity="1" fill-rule="evenodd"/><path fill="#e8cfc1" d="M 262.875 300.511719 C 263.257812 300.933594 263.640625 301.347656 264.023438 301.761719 C 263.546875 303.199219 262.640625 305.113281 261.175781 303.902344 C 260.039062 302.964844 261.609375 301.359375 262.875 300.515625 Z M 262.875 300.511719 " fill-opacity="1" fill-rule="evenodd"/><path fill="#e8cfc1" d="M 147.460938 105.714844 C 147.148438 107.9375 145.722656 108.71875 143.742188 108.449219 C 142.042969 108.214844 140.925781 107.035156 140.992188 105.320312 C 141.070312 103.296875 142.324219 102.117188 144.421875 102.242188 C 146.546875 102.367188 147.425781 103.726562 147.460938 105.714844 Z M 147.460938 105.714844 " fill-opacity="1" fill-rule="evenodd"/><g clip-path="url(#771346ff6a)"><path fill="#e8cfc1" d="M 187.300781 103.292969 C 187.308594 103.359375 187.3125 103.429688 187.320312 103.496094 C 187.613281 103.5 187.90625 103.472656 188.199219 103.421875 C 188.199219 107.007812 188.199219 110.589844 188.199219 114.175781 C 187.632812 114.191406 187.0625 114.210938 186.492188 114.226562 C 186.492188 110.625 186.492188 107.023438 186.492188 103.421875 C 186.753906 103.46875 187.015625 103.492188 187.277344 103.496094 C 187.285156 103.429688 187.292969 103.359375 187.300781 103.292969 Z M 187.285156 102.382812 C 187.28125 102.675781 187.285156 102.964844 187.308594 103.253906 C 187.304688 103.269531 187.304688 103.28125 187.300781 103.292969 C 187.277344 102.984375 187.273438 102.679688 187.285156 102.382812 Z M 62.960938 101.105469 C 63.023438 101.078125 63.085938 101.050781 63.144531 101.027344 C 63.148438 101.023438 63.148438 101.023438 63.148438 101.023438 L 63.320312 101.265625 C 66.40625 101.78125 70 101.71875 69.859375 106.375 C 69.796875 108.492188 67.761719 109.25 66.265625 108.980469 C 61.421875 108.113281 63.066406 104.382812 63.144531 101.375 L 62.949219 101.199219 C 62.953125 101.167969 62.957031 101.136719 62.960938 101.105469 Z M 63.523438 124.882812 C 67.863281 141.144531 77.617188 153.496094 91 163.261719 C 98.777344 166.640625 106.554688 170.019531 114.328125 173.394531 C 114.332031 173.394531 114.332031 173.394531 114.332031 173.398438 C 118.148438 173.136719 121.960938 172.796875 125.78125 172.632812 C 149.820312 171.617188 167.816406 160.632812 180.210938 140.066406 C 182.429688 136.382812 182.109375 129.515625 188.371094 130.21875 C 194.4375 130.902344 194.5 137.472656 196.511719 141.925781 C 200.804688 147.125 205.09375 152.320312 209.386719 157.519531 C 224.441406 169.40625 241.984375 173.246094 260.675781 173.363281 C 268.992188 169.96875 277.300781 166.570312 285.613281 163.175781 C 298.507812 152.878906 309.914062 141.195312 312.132812 124.097656 C 313.148438 116.316406 325.027344 119.785156 323.457031 110.386719 C 322.203125 102.898438 314.03125 101.796875 311.914062 94.429688 C 303.148438 63.957031 281.015625 47.113281 251.871094 46.933594 C 222.4375 46.753906 200.449219 63.367188 190.546875 93.265625 C 189.644531 96.355469 187.417969 99.058594 187.285156 102.378906 C 187.3125 100.171875 187.871094 97.886719 186.316406 95.882812 C 176.535156 62.308594 151.90625 44.636719 118.375 47.136719 C 89.808594 49.269531 67.011719 71.480469 62.960938 101.105469 C 58.0625 103.199219 52.082031 104.195312 51.460938 111.058594 C 50.828125 117.996094 55.199219 119.421875 61.015625 119.683594 C 61.941406 119.726562 63.011719 122.980469 63.523438 124.882812 Z M 232.316406 154.777344 C 228.988281 154.226562 226.101562 152.910156 224.105469 150.046875 C 192.070312 129.707031 195.039062 83.75 229.570312 65.578125 C 229.570312 65.578125 229.574219 65.578125 229.574219 65.578125 C 252.394531 55.847656 275.335938 60.714844 289.46875 78.277344 C 303.933594 96.253906 304.652344 120.625 291.246094 138.507812 C 277.003906 157.5 255.042969 163.5625 232.316406 154.777344 Z M 174.214844 110.292969 C 173.824219 130.367188 163.9375 145.914062 144.984375 154.617188 C 120.828125 163.519531 98.160156 157.382812 84.667969 138.289062 C 71.550781 119.730469 72.613281 95.046875 87.261719 77.898438 C 102.648438 59.890625 124.683594 55.53125 147.320312 66.015625 C 165.519531 75.171875 174.589844 90.730469 174.214844 110.296875 Z M 304.699219 104.195312 C 304.878906 102.089844 306.5625 101.589844 308.257812 101.167969 C 309.992188 101.523438 311.554688 102.070312 311.699219 104.214844 C 311.855469 106.726562 310.640625 108.621094 308.226562 108.5625 C 305.953125 108.507812 304.480469 106.726562 304.699219 104.195312 Z M 304.699219 104.195312 " fill-opacity="1" fill-rule="evenodd"/></g><path fill="#e8cfc1" d="M 220.679688 101.351562 C 220.515625 111.375 226.894531 118.164062 236.546875 118.253906 C 246.070312 118.339844 253.539062 111.371094 253.699219 102.246094 C 253.71875 101.109375 253.609375 99.988281 253.386719 98.898438 C 252.257812 99.828125 250.777344 100.308594 248.828125 100.183594 C 244.761719 99.925781 242.410156 97.644531 242.71875 93.546875 C 242.921875 90.902344 244.046875 89.023438 246.011719 88.152344 C 243.417969 86.425781 240.355469 85.378906 237.125 85.324219 C 228.28125 85.164062 220.824219 92.433594 220.679688 101.351562 Z M 220.679688 101.351562 " fill-opacity="1" fill-rule="evenodd"/><path fill="#e8cfc1" d="M 121.757812 101.351562 C 121.59375 111.375 127.96875 118.164062 137.625 118.253906 C 147.148438 118.339844 154.617188 111.371094 154.777344 102.246094 C 154.796875 101.109375 154.6875 99.988281 154.464844 98.898438 C 153.335938 99.828125 151.851562 100.308594 149.902344 100.183594 C 145.839844 99.925781 143.484375 97.644531 143.796875 93.546875 C 144 90.902344 145.121094 89.023438 147.089844 88.152344 C 144.496094 86.425781 141.433594 85.378906 138.199219 85.324219 C 129.359375 85.164062 121.902344 92.433594 121.757812 101.351562 Z M 121.757812 101.351562 " fill-opacity="1" fill-rule="evenodd"/><path fill="#c26c41" d="M 137.417969 126.496094 C 123.984375 126.332031 112.726562 114.863281 113.027344 101.644531 C 113.347656 87.671875 124.292969 77.324219 138.605469 77.457031 C 151.503906 77.574219 162.589844 88.761719 162.804688 101.871094 C 163.015625 115.011719 151.007812 126.660156 137.417969 126.496094 Z M 170.960938 110.421875 C 171.265625 87.980469 152.945312 69.28125 130.558594 69.195312 C 106.820312 69.101562 88.410156 86.460938 88.328125 109.015625 C 88.257812 127.566406 98.390625 142.347656 113.808594 148.328125 C 118.585938 150.183594 123.867188 151.191406 129.511719 151.203125 C 135.089844 151.214844 140.367188 150.199219 145.167969 148.328125 C 160.308594 142.425781 170.71875 128.003906 170.960938 110.421875 Z M 170.960938 110.421875 " fill-opacity="1" fill-rule="evenodd"/><path fill="#c26c41" d="M 203.804688 110.207031 C 203.78125 127.832031 214.222656 142.386719 229.539062 148.328125 C 234.292969 150.171875 239.515625 151.1875 245.042969 151.203125 C 250.574219 151.222656 255.839844 150.199219 260.652344 148.328125 C 263.433594 147.246094 266.0625 145.878906 268.503906 144.261719 C 279.488281 136.988281 286.664062 124.671875 286.6875 110.566406 C 286.714844 95.9375 279.570312 83.3125 268.503906 75.976562 C 262.042969 71.691406 254.246094 69.210938 245.757812 69.191406 C 222.039062 69.136719 203.835938 86.929688 203.804688 110.207031 Z M 236.933594 126.496094 C 223.59375 126.496094 212 115.183594 211.933594 102.109375 C 211.867188 88.875 223.214844 77.503906 236.53125 77.453125 C 250.574219 77.402344 261.847656 88.425781 261.699219 102.074219 C 261.554688 115.65625 250.558594 126.5 236.933594 126.496094 Z M 236.933594 126.496094 " fill-opacity="1" fill-rule="evenodd"/><path fill="#c26c41" d="M 187.207031 163.664062 C 200.050781 162.808594 204.3125 134.398438 189.097656 125.851562 C 188.371094 125.441406 187.753906 125.277344 187.207031 125.324219 C 186.664062 125.277344 186.046875 125.441406 185.316406 125.851562 C 170.105469 134.398438 174.367188 162.808594 187.207031 163.664062 Z M 187.207031 163.664062 " fill-opacity="1" fill-rule="evenodd"/></svg>