<svg xmlns="http://www.w3.org/2000/svg" xmlns:xlink="http://www.w3.org/1999/xlink" width="500" zoomAndPan="magnify" viewBox="0 0 375 374.999991" height="500" preserveAspectRatio="xMidYMid meet" version="1.0"><defs><clipPath id="554946cea4"><path d="M 101 59.050781 L 274 59.050781 L 274 113 L 101 113 Z M 101 59.050781 " clip-rule="nonzero"/></clipPath><clipPath id="903c81159c"><path d="M 89.554688 86 L 285.304688 86 L 285.304688 178 L 89.554688 178 Z M 89.554688 86 " clip-rule="nonzero"/></clipPath></defs><rect x="-37.5" width="450" fill="#ffffff" y="-37.499999" height="449.999989" fill-opacity="1"/><rect x="-37.5" width="450" fill="#3e2e17" y="-37.499999" height="449.999989" fill-opacity="1"/><g clip-path="url(#554946cea4)"><path fill="#c26c41" d="M 101.835938 73.882812 C 115.785156 79.910156 128.3125 76.363281 140.738281 70.519531 C 155.367188 63.640625 170.605469 59.175781 187.003906 59.066406 C 204.925781 58.953125 221.308594 64.429688 237.238281 71.886719 C 246.714844 76.324219 256.484375 78.492188 266.941406 76.039062 C 268.867188 75.589844 271.328125 73.363281 272.453125 74.671875 C 274.226562 76.71875 272.1875 79.40625 271.277344 81.667969 C 269.269531 86.675781 266.480469 91.207031 262.421875 94.859375 C 258.0625 98.777344 253.441406 99.933594 247.765625 97.308594 C 233.898438 90.890625 219.722656 89.058594 205.496094 96.226562 C 198.070312 99.96875 192.449219 105.886719 187.464844 112.660156 C 185.386719 110.164062 183.628906 107.738281 181.566406 105.617188 C 167.273438 90.925781 149.242188 87.765625 129.113281 96.320312 C 119.902344 100.234375 115.296875 99.222656 109.175781 91.324219 C 105.355469 86.394531 102.078125 81.078125 101.835938 73.882812 Z M 101.835938 73.882812 " fill-opacity="1" fill-rule="evenodd"/></g><path fill="#e8cfc1" d="M 129.066406 237.5625 C 118.5 212.875 115.066406 186.980469 116.113281 159.453125 C 124.914062 166.730469 134.007812 172.183594 143.601562 176.757812 C 156.15625 182.742188 169.300781 186.703125 183.242188 187.777344 C 183.984375 187.835938 184.703125 188.242188 185.433594 188.488281 L 189.558594 188.457031 C 196.429688 187.128906 203.402344 186.382812 210.195312 184.546875 C 227.898438 179.753906 243.679688 171.265625 258.851562 159.472656 C 258.851562 167.0625 259.316406 174.050781 258.761719 180.953125 C 257.304688 199.160156 254.167969 217.085938 247.289062 234.125 C 217.320312 308.359375 157.863281 304.847656 129.066406 237.5625 Z M 129.066406 237.5625 " fill-opacity="1" fill-rule="evenodd"/><path fill="#c26c41" d="M 211.355469 311.703125 C 211.351562 310.179688 210.261719 309.371094 209.566406 308.40625 C 205.1875 302.339844 205.519531 299.757812 211.035156 294.5625 C 212.941406 292.761719 213.484375 294.507812 214.226562 295.46875 C 217.785156 300.074219 221.394531 304.652344 224.691406 309.441406 C 226.140625 311.550781 227.738281 312.136719 230.160156 312.125 C 245.910156 312.03125 261.664062 312.039062 277.414062 312.132812 C 278.855469 312.140625 281.386719 310.941406 281.53125 313.695312 C 281.699219 316.917969 278.890625 315.710938 277.324219 315.710938 C 217.628906 315.773438 157.925781 315.765625 98.230469 315.761719 C 97.441406 315.761719 96.652344 315.753906 95.867188 315.734375 C 94.503906 315.703125 93.792969 314.90625 93.90625 313.636719 C 94 312.597656 94.785156 312.074219 95.894531 312.085938 C 98.101562 312.105469 100.304688 312.078125 102.511719 312.078125 C 116.058594 312.078125 129.605469 311.914062 143.148438 312.179688 C 146.941406 312.253906 149.203125 310.96875 151.230469 307.976562 C 154.140625 303.6875 157.453125 299.671875 160.53125 295.492188 C 161.808594 293.761719 162.625 293.300781 164.351562 295.332031 C 169.941406 301.902344 170.042969 301.808594 164.871094 308.851562 C 164.25 309.699219 163.695312 310.589844 163.023438 311.59375 C 169.34375 312.972656 174.230469 312.324219 177.511719 306.179688 C 179.558594 302.347656 182.792969 299.164062 185.359375 295.589844 C 186.820312 293.550781 187.773438 293.117188 189.410156 295.550781 C 191.953125 299.324219 195.3125 302.601562 197.507812 306.542969 C 200.816406 312.472656 205.632812 312.851562 211.355469 311.703125 Z M 211.355469 311.703125 " fill-opacity="1" fill-rule="evenodd"/><path fill="#c26c41" d="M 241.738281 268.828125 C 247.191406 258.773438 252.410156 248.601562 256.679688 237.972656 C 264.171875 219.308594 269.488281 200.203125 268.4375 179.816406 C 268.347656 178.121094 268.199219 176.429688 268.035156 174.054688 C 275.171875 178.367188 278.691406 184.792969 280.628906 192.113281 C 283.039062 201.21875 281.640625 210.199219 278.457031 218.90625 C 271.597656 237.660156 259.222656 252.652344 245.566406 266.746094 C 244.585938 267.761719 243.566406 268.734375 242.5625 269.726562 C 241.855469 269.824219 241.386719 269.703125 241.738281 268.828125 Z M 241.738281 268.828125 " fill-opacity="1" fill-rule="evenodd"/><path fill="#c26c41" d="M 132.191406 269.941406 C 119.589844 257.109375 107.910156 243.558594 99.84375 227.3125 C 94.273438 216.089844 91.382812 204.316406 94.335938 191.769531 C 96.09375 184.3125 100.390625 178.273438 106.660156 174.195312 C 103.9375 209.316406 117.128906 239.535156 133.246094 268.90625 C 133.53125 269.894531 133.105469 270.167969 132.191406 269.941406 Z M 132.191406 269.941406 " fill-opacity="1" fill-rule="evenodd"/><path fill="#e8cfc1" d="M 132.191406 269.941406 C 132.542969 269.59375 132.894531 269.25 133.246094 268.90625 C 134.003906 269.972656 134.761719 271.042969 135.773438 272.46875 C 133.519531 272.324219 132.8125 271.1875 132.191406 269.941406 Z M 132.191406 269.941406 " fill-opacity="1" fill-rule="evenodd"/><path fill="#e8cfc1" d="M 241.738281 268.828125 C 242.011719 269.128906 242.285156 269.429688 242.5625 269.726562 C 242.21875 270.761719 241.570312 272.136719 240.511719 271.269531 C 239.695312 270.589844 240.824219 269.4375 241.738281 268.828125 Z M 241.738281 268.828125 " fill-opacity="1" fill-rule="evenodd"/><path fill="#e8cfc1" d="M 158.683594 128.648438 C 158.460938 130.25 157.433594 130.8125 156.007812 130.617188 C 154.785156 130.449219 153.980469 129.597656 154.027344 128.363281 C 154.085938 126.910156 154.988281 126.058594 156.496094 126.152344 C 158.027344 126.242188 158.660156 127.21875 158.683594 128.652344 Z M 158.683594 128.648438 " fill-opacity="1" fill-rule="evenodd"/><g clip-path="url(#903c81159c)"><path fill="#e8cfc1" d="M 187.355469 126.90625 C 187.359375 126.953125 187.363281 127.003906 187.367188 127.054688 C 187.578125 127.054688 187.789062 127.035156 188 127 C 187.996094 129.578125 187.996094 132.160156 187.996094 134.738281 C 187.589844 134.75 187.179688 134.765625 186.769531 134.777344 C 186.769531 132.183594 186.769531 129.589844 186.769531 127 C 186.960938 127.035156 187.148438 127.050781 187.335938 127.054688 C 187.339844 127.003906 187.347656 126.957031 187.355469 126.90625 Z M 187.339844 126.25 C 187.339844 126.460938 187.34375 126.671875 187.359375 126.878906 C 187.355469 126.890625 187.355469 126.898438 187.355469 126.90625 C 187.335938 126.683594 187.332031 126.464844 187.339844 126.25 Z M 97.878906 125.332031 C 97.921875 125.3125 97.964844 125.292969 98.011719 125.277344 C 98.011719 125.273438 98.011719 125.273438 98.011719 125.273438 L 98.136719 125.449219 C 100.355469 125.816406 102.941406 125.773438 102.839844 129.125 C 102.796875 130.648438 101.332031 131.191406 100.253906 131 C 96.769531 130.375 97.953125 127.691406 98.007812 125.527344 L 97.867188 125.402344 C 97.871094 125.378906 97.875 125.355469 97.878906 125.332031 Z M 98.28125 142.445312 C 101.40625 154.148438 108.421875 163.035156 118.054688 170.0625 C 123.652344 172.492188 129.246094 174.921875 134.84375 177.351562 C 134.84375 177.351562 134.84375 177.351562 134.84375 177.355469 C 137.589844 177.167969 140.332031 176.921875 143.082031 176.804688 C 160.382812 176.074219 173.332031 168.167969 182.25 153.371094 C 183.847656 150.71875 183.617188 145.777344 188.121094 146.285156 C 192.488281 146.777344 192.535156 151.503906 193.980469 154.707031 C 197.070312 158.449219 200.15625 162.1875 203.246094 165.929688 C 214.082031 174.484375 226.703125 177.246094 240.15625 177.332031 C 246.136719 174.886719 252.117188 172.441406 258.097656 170 C 267.378906 162.589844 275.585938 154.183594 277.183594 141.878906 C 277.914062 136.28125 286.460938 138.777344 285.332031 132.011719 C 284.429688 126.625 278.550781 125.832031 277.023438 120.53125 C 270.714844 98.601562 254.789062 86.480469 233.816406 86.351562 C 212.636719 86.222656 196.816406 98.175781 189.6875 119.691406 C 189.039062 121.914062 187.4375 123.859375 187.339844 126.25 C 187.363281 124.660156 187.761719 123.015625 186.644531 121.574219 C 179.605469 97.414062 161.882812 84.695312 137.753906 86.496094 C 117.199219 88.03125 100.792969 104.015625 97.878906 125.332031 C 94.351562 126.839844 90.050781 127.554688 89.601562 132.496094 C 89.144531 137.488281 92.289062 138.515625 96.476562 138.703125 C 97.144531 138.730469 97.914062 141.074219 98.28125 142.441406 Z M 219.746094 163.957031 C 217.351562 163.558594 215.273438 162.613281 213.839844 160.550781 C 190.785156 145.914062 192.921875 112.84375 217.769531 99.765625 C 217.769531 99.765625 217.773438 99.765625 217.773438 99.765625 C 234.195312 92.765625 250.703125 96.265625 260.875 108.90625 C 271.28125 121.84375 271.800781 139.378906 262.152344 152.246094 C 251.90625 165.914062 236.101562 170.277344 219.746094 163.957031 Z M 177.933594 131.945312 C 177.65625 146.390625 170.539062 157.578125 156.902344 163.839844 C 139.519531 170.246094 123.207031 165.832031 113.5 152.089844 C 104.058594 138.734375 104.824219 120.972656 115.363281 108.632812 C 126.4375 95.675781 142.292969 92.539062 158.582031 100.082031 C 171.675781 106.667969 178.207031 117.867188 177.933594 131.945312 Z M 271.832031 127.554688 C 271.960938 126.039062 273.175781 125.683594 274.394531 125.378906 C 275.640625 125.632812 276.765625 126.027344 276.871094 127.570312 C 276.984375 129.378906 276.109375 130.742188 274.371094 130.699219 C 272.734375 130.660156 271.675781 129.378906 271.832031 127.554688 Z M 271.832031 127.554688 " fill-opacity="1" fill-rule="evenodd"/></g><path fill="#e8cfc1" d="M 211.371094 125.511719 C 211.253906 132.722656 215.84375 137.609375 222.792969 137.671875 C 229.644531 137.734375 235.019531 132.722656 235.132812 126.152344 C 235.148438 125.335938 235.070312 124.527344 234.910156 123.746094 C 234.097656 124.414062 233.03125 124.761719 231.628906 124.671875 C 228.703125 124.484375 227.007812 122.84375 227.234375 119.894531 C 227.378906 117.988281 228.1875 116.636719 229.601562 116.011719 C 227.734375 114.769531 225.53125 114.015625 223.207031 113.976562 C 216.84375 113.863281 211.476562 119.09375 211.371094 125.511719 Z M 211.371094 125.511719 " fill-opacity="1" fill-rule="evenodd"/><path fill="#e8cfc1" d="M 140.1875 125.511719 C 140.070312 132.722656 144.65625 137.609375 151.605469 137.671875 C 158.457031 137.734375 163.832031 132.722656 163.949219 126.152344 C 163.960938 125.335938 163.882812 124.527344 163.722656 123.746094 C 162.910156 124.414062 161.84375 124.761719 160.441406 124.671875 C 157.515625 124.484375 155.824219 122.84375 156.046875 119.894531 C 156.191406 117.988281 157 116.636719 158.414062 116.011719 C 156.550781 114.769531 154.347656 114.015625 152.019531 113.976562 C 145.65625 113.863281 140.292969 119.09375 140.1875 125.511719 Z M 140.1875 125.511719 " fill-opacity="1" fill-rule="evenodd"/><path fill="#c26c41" d="M 151.457031 143.605469 C 141.789062 143.484375 133.691406 135.234375 133.90625 125.722656 C 134.136719 115.667969 142.011719 108.21875 152.3125 108.3125 C 161.59375 108.398438 169.570312 116.449219 169.722656 125.882812 C 169.878906 135.339844 161.238281 143.722656 151.457031 143.601562 Z M 175.59375 132.035156 C 175.816406 115.886719 162.628906 102.429688 146.519531 102.367188 C 129.4375 102.304688 116.191406 114.792969 116.132812 131.027344 C 116.082031 144.375 123.375 155.011719 134.46875 159.316406 C 137.90625 160.648438 141.707031 161.375 145.769531 161.382812 C 149.78125 161.394531 153.578125 160.664062 157.035156 159.316406 C 167.929688 155.066406 175.421875 144.6875 175.59375 132.035156 Z M 175.59375 132.035156 " fill-opacity="1" fill-rule="evenodd"/><path fill="#c26c41" d="M 199.226562 131.882812 C 199.210938 144.5625 206.722656 155.039062 217.75 159.316406 C 221.167969 160.640625 224.929688 161.371094 228.90625 161.382812 C 232.882812 161.394531 236.671875 160.664062 240.136719 159.316406 C 242.136719 158.535156 244.03125 157.550781 245.789062 156.390625 C 253.691406 151.15625 258.855469 142.292969 258.871094 132.140625 C 258.890625 121.613281 253.75 112.53125 245.789062 107.25 C 241.136719 104.167969 235.527344 102.382812 229.417969 102.367188 C 212.351562 102.328125 199.25 115.132812 199.226562 131.882812 Z M 223.070312 143.605469 C 213.46875 143.605469 205.125 135.460938 205.078125 126.054688 C 205.03125 116.53125 213.195312 108.347656 222.777344 108.3125 C 232.886719 108.277344 240.996094 116.210938 240.890625 126.03125 C 240.789062 135.804688 232.875 143.605469 223.066406 143.605469 Z M 223.070312 143.605469 " fill-opacity="1" fill-rule="evenodd"/><path fill="#c26c41" d="M 187.285156 170.351562 C 196.527344 169.734375 199.59375 149.292969 188.648438 143.140625 C 188.125 142.847656 187.679688 142.726562 187.285156 142.761719 C 186.894531 142.726562 186.449219 142.84375 185.925781 143.140625 C 174.976562 149.292969 178.042969 169.734375 187.285156 170.351562 Z M 187.285156 170.351562 " fill-opacity="1" fill-rule="evenodd"/></svg>